<svg xmlns="http://www.w3.org/2000/svg" xmlns:xlink="http://www.w3.org/1999/xlink" xmlns:inkscape="http://www.inkscape.org/namespaces/inkscape" version="1.1" width="263" height="117" viewBox="0 0 9887.63 1424.42">
<defs>
<clipPath id="clip_0">
<path transform="matrix(1,0,0,-1,0,1424.42)" d="M0 1424.422H9887.625V0H0Z"/>
</clipPath>
</defs>
<path transform="matrix(1,0,0,-1,2268.1065,79.77734)" d="M0 0H307.676V-1078.748H974.286V-1329.436H0Z"/>
<g clip-path="url(#clip_0)">
<path transform="matrix(1,0,0,-1,4061.8843,1104.375)" d="M0 0C48.717 51.258 73.104 119.947 73.104 206.032 73.104 292.117 48.717 360.844 0 412.102-48.772 463.396-111.12 489.025-187.079 489.025-263.039 489.025-325.72 463.396-375.104 412.102-424.471 360.844-449.172 292.117-449.172 206.032-449.172 119.947-424.471 51.258-375.104 0-325.72-51.295-263.039-76.924-187.079-76.924-111.12-76.924-48.772-51.295 0 0M-476.711-252.616C-562.166-207.701-628.963-145.316-677.069-65.537-725.211 14.242-749.245 104.741-749.245 206.032-749.245 307.324-725.211 397.859-677.069 477.639-628.963 557.381-562.166 619.729-476.711 664.719-391.238 709.634-294.713 732.11-187.079 732.11-79.482 732.11 16.765 709.634 101.607 664.719 186.412 619.729 252.876 557.381 301.019 477.639 349.124 397.859 373.176 307.324 373.176 206.032 373.176 104.741 349.124 14.242 301.019-65.537 252.876-145.316 186.412-207.701 101.607-252.616 16.765-297.568-79.482-320.045-187.079-320.045-294.713-320.045-391.238-297.568-476.711-252.616"/>
<path transform="matrix(1,0,0,-1,5291.6057,1359.8477)" d="M0 0C-29.115-21.549-64.906-37.683-107.3-48.401-149.73-59.157-194.368-64.572-241.193-64.572-362.735-64.572-456.757-33.565-523.222 28.485-589.686 90.536-622.937 181.702-622.937 301.983V721.725H-780.567V949.603H-622.937V1198.399H-326.647V949.603H-72.176V721.725H-326.647V305.767C-326.647 262.742-315.576 229.474-293.415 206.069-271.272 182.629-239.951 170.946-199.412 170.946-152.586 170.946-112.715 183.594-79.742 208.926Z"/>
<path transform="matrix(1,0,0,-1,5755.002,330.46485)" d="M0 0H-425.417V250.687H733.073V0H307.657V-1078.748H0Z"/>
<path transform="matrix(1,0,0,-1,6829.967,653.32919)" d="M0 0C-45.583-37.979-73.475-89.905-83.6-155.739H419.705C409.542-91.166 381.725-39.575 336.142-.965 290.559 37.646 234.813 56.97 169.017 56.97 101.885 56.97 45.546 37.979 0 0M693.202-328.576H-79.779C-65.871-391.888-32.973-441.885 18.989-478.604 70.878-515.321 135.45-533.681 212.708-533.681 265.857-533.681 313.035-525.781 354.167-509.943 395.3-494.106 433.613-469.108 469.07-434.912L626.701-605.857C530.491-716.013 389.959-771.091 205.104-771.091 89.867-771.091-12.055-748.614-100.661-703.662-189.305-658.747-257.698-596.362-305.803-516.583-353.908-436.804-377.942-346.305-377.942-245.014-377.942-144.983-354.205-54.781-306.73 25.629-259.256 106.039-194.053 168.683-111.12 213.673-28.226 258.588 64.572 281.064 167.125 281.064 267.118 281.064 357.654 259.552 438.694 216.491 519.698 173.431 583.344 111.713 629.557 31.341 675.771-49.069 698.877-142.461 698.877-248.797 698.877-252.58 696.985-279.173 693.202-328.576"/>
<path transform="matrix(1,0,0,-1,7926.74,1356.9912)" d="M0 0C-86.752 44.915-154.478 107.3-203.214 187.079-251.986 266.858-276.316 357.357-276.316 458.648-276.316 559.94-251.986 650.476-203.214 730.255-154.478 809.997-86.752 872.345 0 917.335 86.715 962.25 184.521 984.727 293.415 984.727 401.012 984.727 495.033 962.25 575.443 917.335 655.854 872.345 714.381 808.105 751.137 724.543L521.33 601.109C468.144 694.798 391.517 741.642 291.523 741.642 214.266 741.642 150.324 716.31 99.696 665.683 49.069 615.018 23.737 546.031 23.737 458.648 23.737 371.303 49.069 302.279 99.696 251.652 150.324 200.988 214.266 175.692 291.523 175.692 392.814 175.692 469.404 222.5 521.33 316.225L751.137 190.862C714.381 109.822 655.854 46.547 575.443 .964 495.033-44.619 401.012-67.429 293.415-67.429 184.521-67.429 86.715-44.952 0 0"/>
<path transform="matrix(1,0,0,-1,9770.83,486.20417)" d="M0 0C77.851-75.959 116.795-188.674 116.795-338.07V-923.009H-179.476V-383.653C-179.476-302.613-197.242-242.157-232.662-202.249-268.12-162.378-319.415-142.424-386.51-142.424-461.208-142.424-520.699-165.567-565.021-211.744-609.344-257.994-631.485-326.647-631.485-417.813V-923.009H-927.757V486.206H-631.485V-7.604C-592.245 31.638-544.771 61.717-489.062 82.599-433.354 103.517-372.563 113.939-306.73 113.939-180.144 113.939-77.888 75.959 0 0"/>
<path transform="matrix(1,0,0,-1,862.7957,761.7119)" d="M0 0H421.688L612.649 301.368H291.607C238.474 301.368 188.758 275.162 158.678 231.372Z"/>
<path transform="matrix(1,0,0,-1,397.3364,443.94337)" d="M0 0H179.795C212.116 0 242.234 16.559 259.514 43.866L336.651 165.591H163.312C132.168 165.591 103.076 150.247 85.454 124.61Z"/>
<path transform="matrix(1,0,0,-1,442.0872,1397.251)" d="M0 0H1181.052L1372.013 301.368H311.736C245.994 301.368 184.504 268.971 147.323 214.774Z"/>
<path transform="matrix(1,0,0,-1,1251.7368,183.58106)" d="M0 0-132.359-192.937C-150.552-219.485-175.277-240.868-204.14-255.034L-209.458-257.655C-235.094-270.226-263.275-276.758-291.836-276.758H-569.619C-600.763-276.758-629.893-292.103-647.477-317.776L-826.057-578.127H-404.369L-258.072-347.249C-239.614-318.118-213.446-294.685-182.493-279.493-156.856-266.922-128.675-260.352-100.115-260.352H243.107L434.069 40.979H77.82C46.714 40.979 17.584 25.674 0 0"/>
<path transform="matrix(1,0,0,-1,623.5127,1078.2715)" d="M0 0V0C-24.384-11.584-51.045-17.623-78.087-17.623H-367.112C-398.217-17.623-427.347-32.967-444.933-58.604L-623.513-318.991H-201.825L-59.286-94.038C-40.942-65.098-14.774-41.93 16.179-27.194L33.763-18.838C58.146-7.217 84.808-1.216 111.849-1.216H450.628L641.589 300.152H235.625L71.819 61.336C53.702 34.902 28.94 13.748 0 0"/>
</g>
</svg>
